<mxfile host="app.diagrams.net" modified="2023-08-10T00:24:41.769Z" agent="Mozilla/5.0 (Windows NT 10.0; Win64; x64) AppleWebKit/537.36 (KHTML, like Gecko) Chrome/115.0.0.0 Safari/537.36" etag="a7YkhKDuy1cvW9IG-kCK" version="21.6.7" type="github">
  <diagram name="第 1 页" id="XB4oAmjrCm1BLJ8wPRMQ">
    <mxGraphModel dx="2555" dy="1794" grid="1" gridSize="10" guides="1" tooltips="1" connect="1" arrows="1" fold="1" page="1" pageScale="1" pageWidth="827" pageHeight="1169" math="0" shadow="0">
      <root>
        <mxCell id="0" />
        <mxCell id="1" parent="0" />
        <mxCell id="VIgHkrXqZLJcSK31Eves-15" value="小程序端" style="swimlane;whiteSpace=wrap;html=1;fillColor=#d5e8d4;strokeColor=#82b366;" vertex="1" parent="1">
          <mxGeometry x="-480" y="-40" width="360" height="4160" as="geometry" />
        </mxCell>
        <mxCell id="VIgHkrXqZLJcSK31Eves-31" style="edgeStyle=orthogonalEdgeStyle;rounded=0;orthogonalLoop=1;jettySize=auto;html=1;exitX=0.5;exitY=1;exitDx=0;exitDy=0;" edge="1" parent="VIgHkrXqZLJcSK31Eves-15" source="VIgHkrXqZLJcSK31Eves-22" target="VIgHkrXqZLJcSK31Eves-30">
          <mxGeometry relative="1" as="geometry" />
        </mxCell>
        <mxCell id="VIgHkrXqZLJcSK31Eves-22" value="登录" style="rounded=1;whiteSpace=wrap;html=1;fillColor=#d5e8d4;strokeColor=#82b366;" vertex="1" parent="VIgHkrXqZLJcSK31Eves-15">
          <mxGeometry x="110" y="40" width="120" height="50" as="geometry" />
        </mxCell>
        <mxCell id="VIgHkrXqZLJcSK31Eves-42" style="edgeStyle=orthogonalEdgeStyle;rounded=0;orthogonalLoop=1;jettySize=auto;html=1;entryX=0.5;entryY=0;entryDx=0;entryDy=0;" edge="1" parent="VIgHkrXqZLJcSK31Eves-15" source="VIgHkrXqZLJcSK31Eves-30" target="VIgHkrXqZLJcSK31Eves-41">
          <mxGeometry relative="1" as="geometry" />
        </mxCell>
        <mxCell id="VIgHkrXqZLJcSK31Eves-30" value="立即下单" style="rounded=0;whiteSpace=wrap;html=1;fillColor=#d5e8d4;strokeColor=#82b366;" vertex="1" parent="VIgHkrXqZLJcSK31Eves-15">
          <mxGeometry x="110" y="140" width="120" height="60" as="geometry" />
        </mxCell>
        <mxCell id="VIgHkrXqZLJcSK31Eves-43" style="edgeStyle=orthogonalEdgeStyle;rounded=0;orthogonalLoop=1;jettySize=auto;html=1;" edge="1" parent="VIgHkrXqZLJcSK31Eves-15" source="VIgHkrXqZLJcSK31Eves-41" target="VIgHkrXqZLJcSK31Eves-40">
          <mxGeometry relative="1" as="geometry" />
        </mxCell>
        <mxCell id="VIgHkrXqZLJcSK31Eves-41" value="选择机型" style="rounded=0;whiteSpace=wrap;html=1;fillColor=#d5e8d4;strokeColor=#82b366;" vertex="1" parent="VIgHkrXqZLJcSK31Eves-15">
          <mxGeometry x="110" y="250" width="120" height="60" as="geometry" />
        </mxCell>
        <mxCell id="VIgHkrXqZLJcSK31Eves-58" style="edgeStyle=orthogonalEdgeStyle;rounded=0;orthogonalLoop=1;jettySize=auto;html=1;exitX=0.5;exitY=1;exitDx=0;exitDy=0;" edge="1" parent="VIgHkrXqZLJcSK31Eves-15" source="VIgHkrXqZLJcSK31Eves-40" target="VIgHkrXqZLJcSK31Eves-51">
          <mxGeometry relative="1" as="geometry" />
        </mxCell>
        <mxCell id="VIgHkrXqZLJcSK31Eves-40" value="选择答案项" style="rounded=0;whiteSpace=wrap;html=1;fillColor=#d5e8d4;strokeColor=#82b366;" vertex="1" parent="VIgHkrXqZLJcSK31Eves-15">
          <mxGeometry x="110" y="350" width="120" height="60" as="geometry" />
        </mxCell>
        <mxCell id="VIgHkrXqZLJcSK31Eves-55" style="edgeStyle=orthogonalEdgeStyle;rounded=0;orthogonalLoop=1;jettySize=auto;html=1;exitX=0.5;exitY=1;exitDx=0;exitDy=0;entryX=0.5;entryY=0;entryDx=0;entryDy=0;" edge="1" parent="VIgHkrXqZLJcSK31Eves-15" source="VIgHkrXqZLJcSK31Eves-51" target="VIgHkrXqZLJcSK31Eves-50">
          <mxGeometry relative="1" as="geometry" />
        </mxCell>
        <mxCell id="VIgHkrXqZLJcSK31Eves-51" value="显示预估价格" style="rounded=0;whiteSpace=wrap;html=1;fillColor=#d5e8d4;strokeColor=#82b366;" vertex="1" parent="VIgHkrXqZLJcSK31Eves-15">
          <mxGeometry x="110" y="470" width="120" height="60" as="geometry" />
        </mxCell>
        <mxCell id="VIgHkrXqZLJcSK31Eves-63" style="edgeStyle=orthogonalEdgeStyle;rounded=0;orthogonalLoop=1;jettySize=auto;html=1;exitX=0.5;exitY=1;exitDx=0;exitDy=0;" edge="1" parent="VIgHkrXqZLJcSK31Eves-15" source="VIgHkrXqZLJcSK31Eves-50" target="VIgHkrXqZLJcSK31Eves-49">
          <mxGeometry relative="1" as="geometry" />
        </mxCell>
        <mxCell id="VIgHkrXqZLJcSK31Eves-50" value="输入IMEI" style="rounded=0;whiteSpace=wrap;html=1;fillColor=#d5e8d4;strokeColor=#82b366;" vertex="1" parent="VIgHkrXqZLJcSK31Eves-15">
          <mxGeometry x="110" y="590" width="120" height="60" as="geometry" />
        </mxCell>
        <mxCell id="VIgHkrXqZLJcSK31Eves-71" style="edgeStyle=orthogonalEdgeStyle;rounded=0;orthogonalLoop=1;jettySize=auto;html=1;exitX=0.5;exitY=1;exitDx=0;exitDy=0;entryX=0.5;entryY=0;entryDx=0;entryDy=0;" edge="1" parent="VIgHkrXqZLJcSK31Eves-15" source="VIgHkrXqZLJcSK31Eves-49" target="VIgHkrXqZLJcSK31Eves-47">
          <mxGeometry relative="1" as="geometry" />
        </mxCell>
        <mxCell id="VIgHkrXqZLJcSK31Eves-49" value="拍照上传" style="rounded=0;whiteSpace=wrap;html=1;fillColor=#d5e8d4;strokeColor=#82b366;" vertex="1" parent="VIgHkrXqZLJcSK31Eves-15">
          <mxGeometry x="110" y="700" width="120" height="60" as="geometry" />
        </mxCell>
        <mxCell id="VIgHkrXqZLJcSK31Eves-89" style="edgeStyle=orthogonalEdgeStyle;rounded=0;orthogonalLoop=1;jettySize=auto;html=1;exitX=0.5;exitY=1;exitDx=0;exitDy=0;entryX=0.5;entryY=0;entryDx=0;entryDy=0;" edge="1" parent="VIgHkrXqZLJcSK31Eves-15" source="VIgHkrXqZLJcSK31Eves-47" target="VIgHkrXqZLJcSK31Eves-77">
          <mxGeometry relative="1" as="geometry" />
        </mxCell>
        <mxCell id="VIgHkrXqZLJcSK31Eves-47" value="立即下单" style="rounded=0;whiteSpace=wrap;html=1;fillColor=#d5e8d4;strokeColor=#82b366;" vertex="1" parent="VIgHkrXqZLJcSK31Eves-15">
          <mxGeometry x="110" y="840" width="120" height="60" as="geometry" />
        </mxCell>
        <mxCell id="VIgHkrXqZLJcSK31Eves-91" style="edgeStyle=orthogonalEdgeStyle;rounded=0;orthogonalLoop=1;jettySize=auto;html=1;exitX=0.5;exitY=1;exitDx=0;exitDy=0;entryX=0.5;entryY=0;entryDx=0;entryDy=0;" edge="1" parent="VIgHkrXqZLJcSK31Eves-15" source="VIgHkrXqZLJcSK31Eves-77" target="VIgHkrXqZLJcSK31Eves-46">
          <mxGeometry relative="1" as="geometry" />
        </mxCell>
        <mxCell id="VIgHkrXqZLJcSK31Eves-92" style="edgeStyle=orthogonalEdgeStyle;rounded=0;orthogonalLoop=1;jettySize=auto;html=1;exitX=0.5;exitY=1;exitDx=0;exitDy=0;entryX=0.5;entryY=0;entryDx=0;entryDy=0;" edge="1" parent="VIgHkrXqZLJcSK31Eves-15" source="VIgHkrXqZLJcSK31Eves-77" target="VIgHkrXqZLJcSK31Eves-90">
          <mxGeometry relative="1" as="geometry" />
        </mxCell>
        <mxCell id="VIgHkrXqZLJcSK31Eves-77" value="选择业务" style="rounded=0;whiteSpace=wrap;html=1;fillColor=#d5e8d4;strokeColor=#82b366;" vertex="1" parent="VIgHkrXqZLJcSK31Eves-15">
          <mxGeometry x="110" y="1100" width="120" height="60" as="geometry" />
        </mxCell>
        <mxCell id="VIgHkrXqZLJcSK31Eves-131" style="edgeStyle=orthogonalEdgeStyle;rounded=0;orthogonalLoop=1;jettySize=auto;html=1;exitX=0.5;exitY=1;exitDx=0;exitDy=0;entryX=0.5;entryY=0;entryDx=0;entryDy=0;" edge="1" parent="VIgHkrXqZLJcSK31Eves-15" source="VIgHkrXqZLJcSK31Eves-46" target="VIgHkrXqZLJcSK31Eves-100">
          <mxGeometry relative="1" as="geometry" />
        </mxCell>
        <mxCell id="VIgHkrXqZLJcSK31Eves-46" value="仅回收旧机" style="rounded=0;whiteSpace=wrap;html=1;fillColor=#d5e8d4;strokeColor=#82b366;" vertex="1" parent="VIgHkrXqZLJcSK31Eves-15">
          <mxGeometry x="20" y="1240" width="120" height="60" as="geometry" />
        </mxCell>
        <mxCell id="VIgHkrXqZLJcSK31Eves-127" style="edgeStyle=orthogonalEdgeStyle;rounded=0;orthogonalLoop=1;jettySize=auto;html=1;exitX=0.5;exitY=1;exitDx=0;exitDy=0;" edge="1" parent="VIgHkrXqZLJcSK31Eves-15" source="VIgHkrXqZLJcSK31Eves-90" target="VIgHkrXqZLJcSK31Eves-76">
          <mxGeometry relative="1" as="geometry" />
        </mxCell>
        <mxCell id="VIgHkrXqZLJcSK31Eves-90" value="以旧换新" style="rounded=0;whiteSpace=wrap;html=1;fillColor=#d5e8d4;strokeColor=#82b366;" vertex="1" parent="VIgHkrXqZLJcSK31Eves-15">
          <mxGeometry x="200" y="1240" width="120" height="60" as="geometry" />
        </mxCell>
        <mxCell id="VIgHkrXqZLJcSK31Eves-128" style="edgeStyle=orthogonalEdgeStyle;rounded=0;orthogonalLoop=1;jettySize=auto;html=1;exitX=0.5;exitY=1;exitDx=0;exitDy=0;entryX=0.5;entryY=0;entryDx=0;entryDy=0;" edge="1" parent="VIgHkrXqZLJcSK31Eves-15" source="VIgHkrXqZLJcSK31Eves-76" target="VIgHkrXqZLJcSK31Eves-79">
          <mxGeometry relative="1" as="geometry" />
        </mxCell>
        <mxCell id="VIgHkrXqZLJcSK31Eves-76" value="验证新机" style="rounded=0;whiteSpace=wrap;html=1;fillColor=#d5e8d4;strokeColor=#82b366;" vertex="1" parent="VIgHkrXqZLJcSK31Eves-15">
          <mxGeometry x="200" y="1360" width="120" height="60" as="geometry" />
        </mxCell>
        <mxCell id="VIgHkrXqZLJcSK31Eves-94" style="edgeStyle=orthogonalEdgeStyle;rounded=0;orthogonalLoop=1;jettySize=auto;html=1;exitX=1;exitY=0.5;exitDx=0;exitDy=0;dashed=1;" edge="1" parent="VIgHkrXqZLJcSK31Eves-15" source="VIgHkrXqZLJcSK31Eves-79">
          <mxGeometry relative="1" as="geometry">
            <mxPoint x="940" y="1500" as="targetPoint" />
          </mxGeometry>
        </mxCell>
        <mxCell id="VIgHkrXqZLJcSK31Eves-79" value="上传图片" style="rounded=0;whiteSpace=wrap;html=1;fillColor=#d5e8d4;strokeColor=#82b366;" vertex="1" parent="VIgHkrXqZLJcSK31Eves-15">
          <mxGeometry x="200" y="1470" width="120" height="60" as="geometry" />
        </mxCell>
        <mxCell id="VIgHkrXqZLJcSK31Eves-100" value="付款成功" style="rounded=0;whiteSpace=wrap;html=1;fillColor=#d5e8d4;strokeColor=#82b366;" vertex="1" parent="VIgHkrXqZLJcSK31Eves-15">
          <mxGeometry x="20" y="1690" width="120" height="60" as="geometry" />
        </mxCell>
        <mxCell id="VIgHkrXqZLJcSK31Eves-17" value="订单系统" style="swimlane;whiteSpace=wrap;html=1;startSize=23;fillColor=#f8cecc;strokeColor=#b85450;" vertex="1" parent="1">
          <mxGeometry x="130" y="-40" width="270" height="4160" as="geometry" />
        </mxCell>
        <mxCell id="VIgHkrXqZLJcSK31Eves-56" value="生成订单&lt;br&gt;状态：已下单" style="rounded=0;whiteSpace=wrap;html=1;fillColor=#f8cecc;strokeColor=#b85450;" vertex="1" parent="VIgHkrXqZLJcSK31Eves-17">
          <mxGeometry x="90" y="590" width="120" height="60" as="geometry" />
        </mxCell>
        <mxCell id="VIgHkrXqZLJcSK31Eves-38" value="审核中" style="rounded=0;whiteSpace=wrap;html=1;fillColor=#f8cecc;strokeColor=#b85450;" vertex="1" parent="VIgHkrXqZLJcSK31Eves-17">
          <mxGeometry x="90" y="700" width="120" height="60" as="geometry" />
        </mxCell>
        <mxCell id="VIgHkrXqZLJcSK31Eves-259" value="已取消" style="rounded=0;whiteSpace=wrap;html=1;fillColor=#f8cecc;strokeColor=#b85450;" vertex="1" parent="VIgHkrXqZLJcSK31Eves-17">
          <mxGeometry x="90" y="820" width="120" height="60" as="geometry" />
        </mxCell>
        <mxCell id="VIgHkrXqZLJcSK31Eves-265" value="待确认" style="rounded=0;whiteSpace=wrap;html=1;fillColor=#f8cecc;strokeColor=#b85450;" vertex="1" parent="VIgHkrXqZLJcSK31Eves-17">
          <mxGeometry x="90" y="1040" width="120" height="60" as="geometry" />
        </mxCell>
        <mxCell id="VIgHkrXqZLJcSK31Eves-268" value="已成交" style="rounded=0;whiteSpace=wrap;html=1;fillColor=#f8cecc;strokeColor=#b85450;" vertex="1" parent="VIgHkrXqZLJcSK31Eves-17">
          <mxGeometry x="90" y="1900" width="120" height="60" as="geometry" />
        </mxCell>
        <mxCell id="VIgHkrXqZLJcSK31Eves-271" value="待店员解锁" style="rounded=0;whiteSpace=wrap;html=1;fillColor=#f8cecc;strokeColor=#b85450;" vertex="1" parent="VIgHkrXqZLJcSK31Eves-17">
          <mxGeometry x="90" y="1810" width="120" height="60" as="geometry" />
        </mxCell>
        <mxCell id="VIgHkrXqZLJcSK31Eves-274" value="待付款" style="rounded=0;whiteSpace=wrap;html=1;fillColor=#f8cecc;strokeColor=#b85450;" vertex="1" parent="VIgHkrXqZLJcSK31Eves-17">
          <mxGeometry x="90" y="1690" width="120" height="60" as="geometry" />
        </mxCell>
        <mxCell id="VIgHkrXqZLJcSK31Eves-278" value="已收货" style="rounded=0;whiteSpace=wrap;html=1;fillColor=#f8cecc;strokeColor=#b85450;" vertex="1" parent="VIgHkrXqZLJcSK31Eves-17">
          <mxGeometry x="90" y="2170" width="120" height="60" as="geometry" />
        </mxCell>
        <mxCell id="VIgHkrXqZLJcSK31Eves-280" value="已退单" style="rounded=0;whiteSpace=wrap;html=1;fillColor=#f8cecc;strokeColor=#b85450;" vertex="1" parent="VIgHkrXqZLJcSK31Eves-17">
          <mxGeometry x="110" y="3600" width="120" height="60" as="geometry" />
        </mxCell>
        <mxCell id="VIgHkrXqZLJcSK31Eves-281" value="交易完成" style="rounded=0;whiteSpace=wrap;html=1;fillColor=#f8cecc;strokeColor=#b85450;" vertex="1" parent="VIgHkrXqZLJcSK31Eves-17">
          <mxGeometry x="110" y="3870" width="120" height="60" as="geometry" />
        </mxCell>
        <mxCell id="VIgHkrXqZLJcSK31Eves-283" value="已发货" style="rounded=0;whiteSpace=wrap;html=1;fillColor=#f8cecc;strokeColor=#b85450;" vertex="1" parent="VIgHkrXqZLJcSK31Eves-17">
          <mxGeometry x="90" y="2040" width="120" height="60" as="geometry" />
        </mxCell>
        <mxCell id="VIgHkrXqZLJcSK31Eves-18" value="云检测" style="swimlane;whiteSpace=wrap;html=1;startSize=23;" vertex="1" parent="1">
          <mxGeometry x="400" y="-40" width="250" height="4160" as="geometry" />
        </mxCell>
        <mxCell id="VIgHkrXqZLJcSK31Eves-66" style="edgeStyle=orthogonalEdgeStyle;rounded=0;orthogonalLoop=1;jettySize=auto;html=1;exitX=0.5;exitY=1;exitDx=0;exitDy=0;entryX=0.5;entryY=0;entryDx=0;entryDy=0;" edge="1" parent="VIgHkrXqZLJcSK31Eves-18" source="VIgHkrXqZLJcSK31Eves-48" target="VIgHkrXqZLJcSK31Eves-65">
          <mxGeometry relative="1" as="geometry" />
        </mxCell>
        <mxCell id="VIgHkrXqZLJcSK31Eves-48" value="旧机云检测" style="rounded=0;whiteSpace=wrap;html=1;" vertex="1" parent="VIgHkrXqZLJcSK31Eves-18">
          <mxGeometry x="60" y="700" width="120" height="60" as="geometry" />
        </mxCell>
        <mxCell id="VIgHkrXqZLJcSK31Eves-254" style="edgeStyle=orthogonalEdgeStyle;rounded=0;orthogonalLoop=1;jettySize=auto;html=1;exitX=0.5;exitY=1;exitDx=0;exitDy=0;entryX=0.5;entryY=0;entryDx=0;entryDy=0;" edge="1" parent="VIgHkrXqZLJcSK31Eves-18" source="VIgHkrXqZLJcSK31Eves-65" target="VIgHkrXqZLJcSK31Eves-253">
          <mxGeometry relative="1" as="geometry" />
        </mxCell>
        <mxCell id="VIgHkrXqZLJcSK31Eves-262" value="NO" style="edgeLabel;html=1;align=center;verticalAlign=middle;resizable=0;points=[];" vertex="1" connectable="0" parent="VIgHkrXqZLJcSK31Eves-254">
          <mxGeometry x="-0.2111" y="2" relative="1" as="geometry">
            <mxPoint as="offset" />
          </mxGeometry>
        </mxCell>
        <mxCell id="VIgHkrXqZLJcSK31Eves-65" value="是否关闭订单？" style="rhombus;whiteSpace=wrap;html=1;" vertex="1" parent="VIgHkrXqZLJcSK31Eves-18">
          <mxGeometry x="40" y="810" width="160" height="80" as="geometry" />
        </mxCell>
        <mxCell id="VIgHkrXqZLJcSK31Eves-73" value="生成旧机价格" style="rounded=0;whiteSpace=wrap;html=1;" vertex="1" parent="VIgHkrXqZLJcSK31Eves-18">
          <mxGeometry x="65" y="1040" width="120" height="60" as="geometry" />
        </mxCell>
        <mxCell id="VIgHkrXqZLJcSK31Eves-121" style="edgeStyle=orthogonalEdgeStyle;rounded=0;orthogonalLoop=1;jettySize=auto;html=1;exitX=0.5;exitY=1;exitDx=0;exitDy=0;entryX=0.5;entryY=0;entryDx=0;entryDy=0;" edge="1" parent="VIgHkrXqZLJcSK31Eves-18" source="VIgHkrXqZLJcSK31Eves-75" target="VIgHkrXqZLJcSK31Eves-120">
          <mxGeometry relative="1" as="geometry" />
        </mxCell>
        <mxCell id="VIgHkrXqZLJcSK31Eves-75" value="检测新机" style="rounded=0;whiteSpace=wrap;html=1;" vertex="1" parent="VIgHkrXqZLJcSK31Eves-18">
          <mxGeometry x="60" y="1470" width="120" height="60" as="geometry" />
        </mxCell>
        <mxCell id="VIgHkrXqZLJcSK31Eves-122" style="edgeStyle=orthogonalEdgeStyle;rounded=0;orthogonalLoop=1;jettySize=auto;html=1;exitX=0.5;exitY=1;exitDx=0;exitDy=0;entryX=0.5;entryY=0;entryDx=0;entryDy=0;" edge="1" parent="VIgHkrXqZLJcSK31Eves-18" source="VIgHkrXqZLJcSK31Eves-120" target="VIgHkrXqZLJcSK31Eves-119">
          <mxGeometry relative="1" as="geometry" />
        </mxCell>
        <mxCell id="VIgHkrXqZLJcSK31Eves-123" value="YES" style="edgeLabel;html=1;align=center;verticalAlign=middle;resizable=0;points=[];" vertex="1" connectable="0" parent="VIgHkrXqZLJcSK31Eves-122">
          <mxGeometry x="0.0056" y="-3" relative="1" as="geometry">
            <mxPoint as="offset" />
          </mxGeometry>
        </mxCell>
        <mxCell id="VIgHkrXqZLJcSK31Eves-120" value="新机通过？" style="rhombus;whiteSpace=wrap;html=1;" vertex="1" parent="VIgHkrXqZLJcSK31Eves-18">
          <mxGeometry x="40" y="1600" width="160" height="80" as="geometry" />
        </mxCell>
        <mxCell id="VIgHkrXqZLJcSK31Eves-119" value="是否解锁？" style="rhombus;whiteSpace=wrap;html=1;" vertex="1" parent="VIgHkrXqZLJcSK31Eves-18">
          <mxGeometry x="40" y="1740" width="160" height="80" as="geometry" />
        </mxCell>
        <mxCell id="VIgHkrXqZLJcSK31Eves-255" style="edgeStyle=orthogonalEdgeStyle;rounded=0;orthogonalLoop=1;jettySize=auto;html=1;exitX=0.5;exitY=1;exitDx=0;exitDy=0;entryX=0.449;entryY=-0.011;entryDx=0;entryDy=0;entryPerimeter=0;" edge="1" parent="VIgHkrXqZLJcSK31Eves-18" source="VIgHkrXqZLJcSK31Eves-253" target="VIgHkrXqZLJcSK31Eves-73">
          <mxGeometry relative="1" as="geometry" />
        </mxCell>
        <mxCell id="VIgHkrXqZLJcSK31Eves-256" value="通过" style="edgeLabel;html=1;align=center;verticalAlign=middle;resizable=0;points=[];" vertex="1" connectable="0" parent="VIgHkrXqZLJcSK31Eves-255">
          <mxGeometry x="-0.2373" y="2" relative="1" as="geometry">
            <mxPoint as="offset" />
          </mxGeometry>
        </mxCell>
        <mxCell id="VIgHkrXqZLJcSK31Eves-253" value="旧机通过？" style="rhombus;whiteSpace=wrap;html=1;" vertex="1" parent="VIgHkrXqZLJcSK31Eves-18">
          <mxGeometry x="40" y="920" width="160" height="80" as="geometry" />
        </mxCell>
        <mxCell id="VIgHkrXqZLJcSK31Eves-19" value="营销活动" style="swimlane;whiteSpace=wrap;html=1;" vertex="1" parent="1">
          <mxGeometry x="650" y="-40" width="250" height="4160" as="geometry" />
        </mxCell>
        <mxCell id="VIgHkrXqZLJcSK31Eves-80" value="匹配营销活动" style="rounded=0;whiteSpace=wrap;html=1;" vertex="1" parent="VIgHkrXqZLJcSK31Eves-19">
          <mxGeometry x="80" y="1040" width="120" height="60" as="geometry" />
        </mxCell>
        <mxCell id="VIgHkrXqZLJcSK31Eves-93" style="edgeStyle=orthogonalEdgeStyle;rounded=0;orthogonalLoop=1;jettySize=auto;html=1;exitX=0.5;exitY=1;exitDx=0;exitDy=0;" edge="1" parent="VIgHkrXqZLJcSK31Eves-19" source="VIgHkrXqZLJcSK31Eves-44" target="VIgHkrXqZLJcSK31Eves-80">
          <mxGeometry relative="1" as="geometry" />
        </mxCell>
        <mxCell id="VIgHkrXqZLJcSK31Eves-44" value="配置营销活动" style="rounded=0;whiteSpace=wrap;html=1;" vertex="1" parent="VIgHkrXqZLJcSK31Eves-19">
          <mxGeometry x="80" y="70" width="120" height="60" as="geometry" />
        </mxCell>
        <mxCell id="VIgHkrXqZLJcSK31Eves-20" value="第三方" style="swimlane;whiteSpace=wrap;html=1;" vertex="1" parent="1">
          <mxGeometry x="900" y="-40" width="250" height="4160" as="geometry" />
        </mxCell>
        <mxCell id="VIgHkrXqZLJcSK31Eves-144" style="edgeStyle=orthogonalEdgeStyle;rounded=0;orthogonalLoop=1;jettySize=auto;html=1;exitX=0.5;exitY=1;exitDx=0;exitDy=0;entryX=0.5;entryY=0;entryDx=0;entryDy=0;" edge="1" parent="VIgHkrXqZLJcSK31Eves-20" source="VIgHkrXqZLJcSK31Eves-143" target="VIgHkrXqZLJcSK31Eves-142">
          <mxGeometry relative="1" as="geometry" />
        </mxCell>
        <mxCell id="VIgHkrXqZLJcSK31Eves-143" value="发起物流" style="rounded=0;whiteSpace=wrap;html=1;" vertex="1" parent="VIgHkrXqZLJcSK31Eves-20">
          <mxGeometry x="65" y="1900" width="120" height="60" as="geometry" />
        </mxCell>
        <mxCell id="VIgHkrXqZLJcSK31Eves-145" style="edgeStyle=orthogonalEdgeStyle;rounded=0;orthogonalLoop=1;jettySize=auto;html=1;exitX=0.5;exitY=1;exitDx=0;exitDy=0;entryX=0.5;entryY=0;entryDx=0;entryDy=0;" edge="1" parent="VIgHkrXqZLJcSK31Eves-20" source="VIgHkrXqZLJcSK31Eves-142" target="VIgHkrXqZLJcSK31Eves-141">
          <mxGeometry relative="1" as="geometry" />
        </mxCell>
        <mxCell id="VIgHkrXqZLJcSK31Eves-142" value="物流取件" style="rounded=0;whiteSpace=wrap;html=1;" vertex="1" parent="VIgHkrXqZLJcSK31Eves-20">
          <mxGeometry x="65" y="2010" width="120" height="60" as="geometry" />
        </mxCell>
        <mxCell id="VIgHkrXqZLJcSK31Eves-141" value="物流签收" style="rounded=0;whiteSpace=wrap;html=1;" vertex="1" parent="VIgHkrXqZLJcSK31Eves-20">
          <mxGeometry x="65" y="2120" width="120" height="60" as="geometry" />
        </mxCell>
        <mxCell id="VIgHkrXqZLJcSK31Eves-21" value="生产系统" style="swimlane;whiteSpace=wrap;html=1;" vertex="1" parent="1">
          <mxGeometry x="1150" y="-40" width="1970" height="4160" as="geometry" />
        </mxCell>
        <mxCell id="VIgHkrXqZLJcSK31Eves-151" style="edgeStyle=orthogonalEdgeStyle;rounded=0;orthogonalLoop=1;jettySize=auto;html=1;exitX=0.5;exitY=1;exitDx=0;exitDy=0;entryX=0.5;entryY=0;entryDx=0;entryDy=0;" edge="1" parent="VIgHkrXqZLJcSK31Eves-21" source="VIgHkrXqZLJcSK31Eves-140" target="VIgHkrXqZLJcSK31Eves-139">
          <mxGeometry relative="1" as="geometry" />
        </mxCell>
        <mxCell id="VIgHkrXqZLJcSK31Eves-140" value="仓库签收" style="rounded=0;whiteSpace=wrap;html=1;" vertex="1" parent="VIgHkrXqZLJcSK31Eves-21">
          <mxGeometry x="210" y="2120" width="120" height="60" as="geometry" />
        </mxCell>
        <mxCell id="VIgHkrXqZLJcSK31Eves-148" style="edgeStyle=orthogonalEdgeStyle;rounded=0;orthogonalLoop=1;jettySize=auto;html=1;exitX=0.5;exitY=1;exitDx=0;exitDy=0;entryX=0.5;entryY=0;entryDx=0;entryDy=0;" edge="1" parent="VIgHkrXqZLJcSK31Eves-21" source="VIgHkrXqZLJcSK31Eves-139" target="VIgHkrXqZLJcSK31Eves-138">
          <mxGeometry relative="1" as="geometry" />
        </mxCell>
        <mxCell id="VIgHkrXqZLJcSK31Eves-139" value="拆包" style="rounded=0;whiteSpace=wrap;html=1;" vertex="1" parent="VIgHkrXqZLJcSK31Eves-21">
          <mxGeometry x="210" y="2240" width="120" height="60" as="geometry" />
        </mxCell>
        <mxCell id="VIgHkrXqZLJcSK31Eves-149" style="edgeStyle=orthogonalEdgeStyle;rounded=0;orthogonalLoop=1;jettySize=auto;html=1;exitX=0.5;exitY=1;exitDx=0;exitDy=0;" edge="1" parent="VIgHkrXqZLJcSK31Eves-21" source="VIgHkrXqZLJcSK31Eves-138" target="VIgHkrXqZLJcSK31Eves-137">
          <mxGeometry relative="1" as="geometry" />
        </mxCell>
        <mxCell id="VIgHkrXqZLJcSK31Eves-138" value="预付费收货" style="rounded=0;whiteSpace=wrap;html=1;" vertex="1" parent="VIgHkrXqZLJcSK31Eves-21">
          <mxGeometry x="210" y="2350" width="120" height="60" as="geometry" />
        </mxCell>
        <mxCell id="VIgHkrXqZLJcSK31Eves-150" style="edgeStyle=orthogonalEdgeStyle;rounded=0;orthogonalLoop=1;jettySize=auto;html=1;exitX=0.5;exitY=1;exitDx=0;exitDy=0;entryX=0.5;entryY=0;entryDx=0;entryDy=0;" edge="1" parent="VIgHkrXqZLJcSK31Eves-21" source="VIgHkrXqZLJcSK31Eves-137" target="VIgHkrXqZLJcSK31Eves-136">
          <mxGeometry relative="1" as="geometry" />
        </mxCell>
        <mxCell id="VIgHkrXqZLJcSK31Eves-137" value="分流" style="rounded=0;whiteSpace=wrap;html=1;" vertex="1" parent="VIgHkrXqZLJcSK31Eves-21">
          <mxGeometry x="210" y="2480" width="120" height="60" as="geometry" />
        </mxCell>
        <mxCell id="VIgHkrXqZLJcSK31Eves-190" style="edgeStyle=orthogonalEdgeStyle;rounded=0;orthogonalLoop=1;jettySize=auto;html=1;exitX=0.5;exitY=1;exitDx=0;exitDy=0;entryX=0.5;entryY=0;entryDx=0;entryDy=0;" edge="1" parent="VIgHkrXqZLJcSK31Eves-21" source="VIgHkrXqZLJcSK31Eves-136" target="VIgHkrXqZLJcSK31Eves-189">
          <mxGeometry relative="1" as="geometry" />
        </mxCell>
        <mxCell id="VIgHkrXqZLJcSK31Eves-136" value="回收检测" style="rounded=0;whiteSpace=wrap;html=1;" vertex="1" parent="VIgHkrXqZLJcSK31Eves-21">
          <mxGeometry x="210" y="2590" width="120" height="60" as="geometry" />
        </mxCell>
        <mxCell id="VIgHkrXqZLJcSK31Eves-195" style="edgeStyle=orthogonalEdgeStyle;rounded=0;orthogonalLoop=1;jettySize=auto;html=1;exitX=0.5;exitY=1;exitDx=0;exitDy=0;entryX=0.5;entryY=0;entryDx=0;entryDy=0;" edge="1" parent="VIgHkrXqZLJcSK31Eves-21" source="VIgHkrXqZLJcSK31Eves-135" target="VIgHkrXqZLJcSK31Eves-133">
          <mxGeometry relative="1" as="geometry" />
        </mxCell>
        <mxCell id="VIgHkrXqZLJcSK31Eves-135" value="更新物品状态" style="rounded=0;whiteSpace=wrap;html=1;" vertex="1" parent="VIgHkrXqZLJcSK31Eves-21">
          <mxGeometry x="70" y="2870" width="120" height="60" as="geometry" />
        </mxCell>
        <mxCell id="VIgHkrXqZLJcSK31Eves-214" style="edgeStyle=orthogonalEdgeStyle;rounded=0;orthogonalLoop=1;jettySize=auto;html=1;exitX=0.5;exitY=1;exitDx=0;exitDy=0;" edge="1" parent="VIgHkrXqZLJcSK31Eves-21" source="VIgHkrXqZLJcSK31Eves-134" target="VIgHkrXqZLJcSK31Eves-187">
          <mxGeometry relative="1" as="geometry" />
        </mxCell>
        <mxCell id="VIgHkrXqZLJcSK31Eves-134" value="提交" style="rounded=0;whiteSpace=wrap;html=1;" vertex="1" parent="VIgHkrXqZLJcSK31Eves-21">
          <mxGeometry x="350" y="2870" width="120" height="60" as="geometry" />
        </mxCell>
        <mxCell id="VIgHkrXqZLJcSK31Eves-191" style="edgeStyle=orthogonalEdgeStyle;rounded=0;orthogonalLoop=1;jettySize=auto;html=1;exitX=0;exitY=0.5;exitDx=0;exitDy=0;entryX=0.5;entryY=0;entryDx=0;entryDy=0;" edge="1" parent="VIgHkrXqZLJcSK31Eves-21" source="VIgHkrXqZLJcSK31Eves-189" target="VIgHkrXqZLJcSK31Eves-135">
          <mxGeometry relative="1" as="geometry" />
        </mxCell>
        <mxCell id="VIgHkrXqZLJcSK31Eves-192" value="有锁" style="edgeLabel;html=1;align=center;verticalAlign=middle;resizable=0;points=[];" vertex="1" connectable="0" parent="VIgHkrXqZLJcSK31Eves-191">
          <mxGeometry x="0.0719" y="1" relative="1" as="geometry">
            <mxPoint as="offset" />
          </mxGeometry>
        </mxCell>
        <mxCell id="VIgHkrXqZLJcSK31Eves-193" style="edgeStyle=orthogonalEdgeStyle;rounded=0;orthogonalLoop=1;jettySize=auto;html=1;exitX=1;exitY=0.5;exitDx=0;exitDy=0;entryX=0.5;entryY=0;entryDx=0;entryDy=0;" edge="1" parent="VIgHkrXqZLJcSK31Eves-21" source="VIgHkrXqZLJcSK31Eves-189" target="VIgHkrXqZLJcSK31Eves-134">
          <mxGeometry relative="1" as="geometry" />
        </mxCell>
        <mxCell id="VIgHkrXqZLJcSK31Eves-194" value="无锁" style="edgeLabel;html=1;align=center;verticalAlign=middle;resizable=0;points=[];" vertex="1" connectable="0" parent="VIgHkrXqZLJcSK31Eves-193">
          <mxGeometry x="0.2123" y="2" relative="1" as="geometry">
            <mxPoint as="offset" />
          </mxGeometry>
        </mxCell>
        <mxCell id="VIgHkrXqZLJcSK31Eves-189" value="是否有锁？" style="rhombus;whiteSpace=wrap;html=1;" vertex="1" parent="VIgHkrXqZLJcSK31Eves-21">
          <mxGeometry x="190" y="2700" width="160" height="80" as="geometry" />
        </mxCell>
        <mxCell id="VIgHkrXqZLJcSK31Eves-196" style="edgeStyle=orthogonalEdgeStyle;rounded=0;orthogonalLoop=1;jettySize=auto;html=1;exitX=0.5;exitY=1;exitDx=0;exitDy=0;entryX=0.5;entryY=0;entryDx=0;entryDy=0;" edge="1" parent="VIgHkrXqZLJcSK31Eves-21" source="VIgHkrXqZLJcSK31Eves-133" target="VIgHkrXqZLJcSK31Eves-171">
          <mxGeometry relative="1" as="geometry" />
        </mxCell>
        <mxCell id="VIgHkrXqZLJcSK31Eves-133" value="分流" style="rounded=0;whiteSpace=wrap;html=1;" vertex="1" parent="VIgHkrXqZLJcSK31Eves-21">
          <mxGeometry x="70" y="2990" width="120" height="60" as="geometry" />
        </mxCell>
        <mxCell id="VIgHkrXqZLJcSK31Eves-197" style="edgeStyle=orthogonalEdgeStyle;rounded=0;orthogonalLoop=1;jettySize=auto;html=1;exitX=0.5;exitY=1;exitDx=0;exitDy=0;entryX=0.5;entryY=0;entryDx=0;entryDy=0;" edge="1" parent="VIgHkrXqZLJcSK31Eves-21" source="VIgHkrXqZLJcSK31Eves-171" target="VIgHkrXqZLJcSK31Eves-188">
          <mxGeometry relative="1" as="geometry" />
        </mxCell>
        <mxCell id="VIgHkrXqZLJcSK31Eves-171" value="预付费解锁" style="rounded=0;whiteSpace=wrap;html=1;" vertex="1" parent="VIgHkrXqZLJcSK31Eves-21">
          <mxGeometry x="70" y="3110" width="120" height="60" as="geometry" />
        </mxCell>
        <mxCell id="VIgHkrXqZLJcSK31Eves-208" style="edgeStyle=orthogonalEdgeStyle;rounded=0;orthogonalLoop=1;jettySize=auto;html=1;exitX=0.5;exitY=1;exitDx=0;exitDy=0;entryX=0.5;entryY=0;entryDx=0;entryDy=0;" edge="1" parent="VIgHkrXqZLJcSK31Eves-21" source="VIgHkrXqZLJcSK31Eves-188" target="VIgHkrXqZLJcSK31Eves-170">
          <mxGeometry relative="1" as="geometry" />
        </mxCell>
        <mxCell id="VIgHkrXqZLJcSK31Eves-212" value="无锁" style="edgeLabel;html=1;align=center;verticalAlign=middle;resizable=0;points=[];" vertex="1" connectable="0" parent="VIgHkrXqZLJcSK31Eves-208">
          <mxGeometry x="-0.2722" y="1" relative="1" as="geometry">
            <mxPoint as="offset" />
          </mxGeometry>
        </mxCell>
        <mxCell id="VIgHkrXqZLJcSK31Eves-209" style="edgeStyle=orthogonalEdgeStyle;rounded=0;orthogonalLoop=1;jettySize=auto;html=1;exitX=1;exitY=0.5;exitDx=0;exitDy=0;entryX=0.5;entryY=0;entryDx=0;entryDy=0;" edge="1" parent="VIgHkrXqZLJcSK31Eves-21" source="VIgHkrXqZLJcSK31Eves-188" target="VIgHkrXqZLJcSK31Eves-167">
          <mxGeometry relative="1" as="geometry" />
        </mxCell>
        <mxCell id="VIgHkrXqZLJcSK31Eves-210" style="edgeStyle=orthogonalEdgeStyle;rounded=0;orthogonalLoop=1;jettySize=auto;html=1;exitX=1;exitY=0.5;exitDx=0;exitDy=0;entryX=0.547;entryY=0.017;entryDx=0;entryDy=0;entryPerimeter=0;" edge="1" parent="VIgHkrXqZLJcSK31Eves-21" source="VIgHkrXqZLJcSK31Eves-188" target="VIgHkrXqZLJcSK31Eves-166">
          <mxGeometry relative="1" as="geometry" />
        </mxCell>
        <mxCell id="VIgHkrXqZLJcSK31Eves-211" value="有锁" style="edgeLabel;html=1;align=center;verticalAlign=middle;resizable=0;points=[];" vertex="1" connectable="0" parent="VIgHkrXqZLJcSK31Eves-210">
          <mxGeometry x="-0.7671" y="-3" relative="1" as="geometry">
            <mxPoint as="offset" />
          </mxGeometry>
        </mxCell>
        <mxCell id="VIgHkrXqZLJcSK31Eves-188" value="是否解锁？" style="rhombus;whiteSpace=wrap;html=1;" vertex="1" parent="VIgHkrXqZLJcSK31Eves-21">
          <mxGeometry x="50" y="3230" width="160" height="80" as="geometry" />
        </mxCell>
        <mxCell id="VIgHkrXqZLJcSK31Eves-244" style="edgeStyle=orthogonalEdgeStyle;rounded=0;orthogonalLoop=1;jettySize=auto;html=1;exitX=0.5;exitY=1;exitDx=0;exitDy=0;entryX=0.5;entryY=0;entryDx=0;entryDy=0;" edge="1" parent="VIgHkrXqZLJcSK31Eves-21" source="VIgHkrXqZLJcSK31Eves-170" target="VIgHkrXqZLJcSK31Eves-243">
          <mxGeometry relative="1" as="geometry" />
        </mxCell>
        <mxCell id="VIgHkrXqZLJcSK31Eves-170" value="直接成交" style="rounded=0;whiteSpace=wrap;html=1;" vertex="1" parent="VIgHkrXqZLJcSK31Eves-21">
          <mxGeometry x="70" y="3370" width="120" height="60" as="geometry" />
        </mxCell>
        <mxCell id="VIgHkrXqZLJcSK31Eves-245" style="edgeStyle=orthogonalEdgeStyle;rounded=0;orthogonalLoop=1;jettySize=auto;html=1;exitX=0.5;exitY=1;exitDx=0;exitDy=0;entryX=0.5;entryY=0;entryDx=0;entryDy=0;" edge="1" parent="VIgHkrXqZLJcSK31Eves-21" source="VIgHkrXqZLJcSK31Eves-167" target="VIgHkrXqZLJcSK31Eves-242">
          <mxGeometry relative="1" as="geometry" />
        </mxCell>
        <mxCell id="VIgHkrXqZLJcSK31Eves-167" value="提交复检" style="rounded=0;whiteSpace=wrap;html=1;" vertex="1" parent="VIgHkrXqZLJcSK31Eves-21">
          <mxGeometry x="230" y="3370" width="120" height="60" as="geometry" />
        </mxCell>
        <mxCell id="VIgHkrXqZLJcSK31Eves-213" style="edgeStyle=orthogonalEdgeStyle;rounded=0;orthogonalLoop=1;jettySize=auto;html=1;exitX=0.5;exitY=1;exitDx=0;exitDy=0;" edge="1" parent="VIgHkrXqZLJcSK31Eves-21" source="VIgHkrXqZLJcSK31Eves-166" target="VIgHkrXqZLJcSK31Eves-165">
          <mxGeometry relative="1" as="geometry" />
        </mxCell>
        <mxCell id="VIgHkrXqZLJcSK31Eves-166" value="退货" style="rounded=0;whiteSpace=wrap;html=1;" vertex="1" parent="VIgHkrXqZLJcSK31Eves-21">
          <mxGeometry x="384" y="3370" width="120" height="60" as="geometry" />
        </mxCell>
        <mxCell id="VIgHkrXqZLJcSK31Eves-241" style="edgeStyle=orthogonalEdgeStyle;rounded=0;orthogonalLoop=1;jettySize=auto;html=1;exitX=0.5;exitY=1;exitDx=0;exitDy=0;entryX=0.5;entryY=0;entryDx=0;entryDy=0;" edge="1" parent="VIgHkrXqZLJcSK31Eves-21" source="VIgHkrXqZLJcSK31Eves-165" target="VIgHkrXqZLJcSK31Eves-164">
          <mxGeometry relative="1" as="geometry" />
        </mxCell>
        <mxCell id="VIgHkrXqZLJcSK31Eves-165" value="分流" style="rounded=0;whiteSpace=wrap;html=1;" vertex="1" parent="VIgHkrXqZLJcSK31Eves-21">
          <mxGeometry x="384" y="3487" width="120" height="60" as="geometry" />
        </mxCell>
        <mxCell id="VIgHkrXqZLJcSK31Eves-230" style="edgeStyle=orthogonalEdgeStyle;rounded=0;orthogonalLoop=1;jettySize=auto;html=1;exitX=1;exitY=0.5;exitDx=0;exitDy=0;" edge="1" parent="VIgHkrXqZLJcSK31Eves-21" source="VIgHkrXqZLJcSK31Eves-164" target="VIgHkrXqZLJcSK31Eves-163">
          <mxGeometry relative="1" as="geometry" />
        </mxCell>
        <mxCell id="VIgHkrXqZLJcSK31Eves-164" value="退货审核" style="rounded=0;whiteSpace=wrap;html=1;" vertex="1" parent="VIgHkrXqZLJcSK31Eves-21">
          <mxGeometry x="384" y="3600" width="120" height="60" as="geometry" />
        </mxCell>
        <mxCell id="VIgHkrXqZLJcSK31Eves-216" style="edgeStyle=orthogonalEdgeStyle;rounded=0;orthogonalLoop=1;jettySize=auto;html=1;exitX=0.5;exitY=1;exitDx=0;exitDy=0;entryX=0.5;entryY=0;entryDx=0;entryDy=0;" edge="1" parent="VIgHkrXqZLJcSK31Eves-21" source="VIgHkrXqZLJcSK31Eves-187" target="VIgHkrXqZLJcSK31Eves-107">
          <mxGeometry relative="1" as="geometry" />
        </mxCell>
        <mxCell id="VIgHkrXqZLJcSK31Eves-218" value="一致" style="edgeLabel;html=1;align=center;verticalAlign=middle;resizable=0;points=[];" vertex="1" connectable="0" parent="VIgHkrXqZLJcSK31Eves-216">
          <mxGeometry x="-0.0667" y="2" relative="1" as="geometry">
            <mxPoint as="offset" />
          </mxGeometry>
        </mxCell>
        <mxCell id="VIgHkrXqZLJcSK31Eves-224" style="edgeStyle=orthogonalEdgeStyle;rounded=0;orthogonalLoop=1;jettySize=auto;html=1;exitX=1;exitY=0.5;exitDx=0;exitDy=0;" edge="1" parent="VIgHkrXqZLJcSK31Eves-21" source="VIgHkrXqZLJcSK31Eves-187" target="VIgHkrXqZLJcSK31Eves-108">
          <mxGeometry relative="1" as="geometry" />
        </mxCell>
        <mxCell id="VIgHkrXqZLJcSK31Eves-225" value="不一致" style="edgeLabel;html=1;align=center;verticalAlign=middle;resizable=0;points=[];" vertex="1" connectable="0" parent="VIgHkrXqZLJcSK31Eves-224">
          <mxGeometry x="-0.0708" y="2" relative="1" as="geometry">
            <mxPoint as="offset" />
          </mxGeometry>
        </mxCell>
        <mxCell id="VIgHkrXqZLJcSK31Eves-187" value="是否和云检测一致？" style="rhombus;whiteSpace=wrap;html=1;" vertex="1" parent="VIgHkrXqZLJcSK31Eves-21">
          <mxGeometry x="330" y="2970" width="160" height="80" as="geometry" />
        </mxCell>
        <mxCell id="VIgHkrXqZLJcSK31Eves-226" style="edgeStyle=orthogonalEdgeStyle;rounded=0;orthogonalLoop=1;jettySize=auto;html=1;exitX=1;exitY=0.5;exitDx=0;exitDy=0;entryX=0;entryY=0.5;entryDx=0;entryDy=0;" edge="1" parent="VIgHkrXqZLJcSK31Eves-21" source="VIgHkrXqZLJcSK31Eves-108" target="VIgHkrXqZLJcSK31Eves-106">
          <mxGeometry relative="1" as="geometry" />
        </mxCell>
        <mxCell id="VIgHkrXqZLJcSK31Eves-108" value="分流" style="rounded=0;whiteSpace=wrap;html=1;" vertex="1" parent="VIgHkrXqZLJcSK31Eves-21">
          <mxGeometry x="570" y="2980" width="120" height="60" as="geometry" />
        </mxCell>
        <mxCell id="VIgHkrXqZLJcSK31Eves-240" style="edgeStyle=orthogonalEdgeStyle;rounded=0;orthogonalLoop=1;jettySize=auto;html=1;exitX=0.5;exitY=1;exitDx=0;exitDy=0;entryX=0.5;entryY=0;entryDx=0;entryDy=0;strokeColor=#00CC00;" edge="1" parent="VIgHkrXqZLJcSK31Eves-21" source="VIgHkrXqZLJcSK31Eves-107" target="VIgHkrXqZLJcSK31Eves-156">
          <mxGeometry relative="1" as="geometry">
            <Array as="points">
              <mxPoint x="410" y="3240" />
              <mxPoint x="1730" y="3240" />
            </Array>
          </mxGeometry>
        </mxCell>
        <mxCell id="VIgHkrXqZLJcSK31Eves-107" value="分流" style="rounded=0;whiteSpace=wrap;html=1;" vertex="1" parent="VIgHkrXqZLJcSK31Eves-21">
          <mxGeometry x="350" y="3120" width="120" height="60" as="geometry" />
        </mxCell>
        <mxCell id="VIgHkrXqZLJcSK31Eves-227" style="edgeStyle=orthogonalEdgeStyle;rounded=0;orthogonalLoop=1;jettySize=auto;html=1;exitX=1;exitY=0.5;exitDx=0;exitDy=0;entryX=0;entryY=0.5;entryDx=0;entryDy=0;" edge="1" parent="VIgHkrXqZLJcSK31Eves-21" source="VIgHkrXqZLJcSK31Eves-106" target="VIgHkrXqZLJcSK31Eves-104">
          <mxGeometry relative="1" as="geometry" />
        </mxCell>
        <mxCell id="VIgHkrXqZLJcSK31Eves-228" style="edgeStyle=orthogonalEdgeStyle;rounded=0;orthogonalLoop=1;jettySize=auto;html=1;exitX=1;exitY=0.5;exitDx=0;exitDy=0;entryX=0;entryY=0.5;entryDx=0;entryDy=0;" edge="1" parent="VIgHkrXqZLJcSK31Eves-21" source="VIgHkrXqZLJcSK31Eves-106" target="VIgHkrXqZLJcSK31Eves-105">
          <mxGeometry relative="1" as="geometry" />
        </mxCell>
        <mxCell id="VIgHkrXqZLJcSK31Eves-229" style="edgeStyle=orthogonalEdgeStyle;rounded=0;orthogonalLoop=1;jettySize=auto;html=1;exitX=1;exitY=0.5;exitDx=0;exitDy=0;entryX=0;entryY=0.5;entryDx=0;entryDy=0;" edge="1" parent="VIgHkrXqZLJcSK31Eves-21" source="VIgHkrXqZLJcSK31Eves-106" target="VIgHkrXqZLJcSK31Eves-103">
          <mxGeometry relative="1" as="geometry" />
        </mxCell>
        <mxCell id="VIgHkrXqZLJcSK31Eves-106" value="差错处理" style="rounded=0;whiteSpace=wrap;html=1;" vertex="1" parent="VIgHkrXqZLJcSK31Eves-21">
          <mxGeometry x="740" y="2980" width="120" height="60" as="geometry" />
        </mxCell>
        <mxCell id="VIgHkrXqZLJcSK31Eves-232" style="edgeStyle=orthogonalEdgeStyle;rounded=0;orthogonalLoop=1;jettySize=auto;html=1;exitX=1;exitY=0.5;exitDx=0;exitDy=0;" edge="1" parent="VIgHkrXqZLJcSK31Eves-21" source="VIgHkrXqZLJcSK31Eves-105" target="VIgHkrXqZLJcSK31Eves-97">
          <mxGeometry relative="1" as="geometry" />
        </mxCell>
        <mxCell id="VIgHkrXqZLJcSK31Eves-105" value="提交复检" style="rounded=0;whiteSpace=wrap;html=1;" vertex="1" parent="VIgHkrXqZLJcSK31Eves-21">
          <mxGeometry x="960" y="2880" width="120" height="60" as="geometry" />
        </mxCell>
        <mxCell id="VIgHkrXqZLJcSK31Eves-233" style="edgeStyle=orthogonalEdgeStyle;rounded=0;orthogonalLoop=1;jettySize=auto;html=1;exitX=1;exitY=0.5;exitDx=0;exitDy=0;" edge="1" parent="VIgHkrXqZLJcSK31Eves-21" source="VIgHkrXqZLJcSK31Eves-104" target="VIgHkrXqZLJcSK31Eves-102">
          <mxGeometry relative="1" as="geometry" />
        </mxCell>
        <mxCell id="VIgHkrXqZLJcSK31Eves-104" value="直接成交" style="rounded=0;whiteSpace=wrap;html=1;" vertex="1" parent="VIgHkrXqZLJcSK31Eves-21">
          <mxGeometry x="960" y="2980" width="120" height="60" as="geometry" />
        </mxCell>
        <mxCell id="VIgHkrXqZLJcSK31Eves-234" style="edgeStyle=orthogonalEdgeStyle;rounded=0;orthogonalLoop=1;jettySize=auto;html=1;exitX=1;exitY=0.5;exitDx=0;exitDy=0;entryX=0;entryY=0.5;entryDx=0;entryDy=0;" edge="1" parent="VIgHkrXqZLJcSK31Eves-21" source="VIgHkrXqZLJcSK31Eves-103" target="VIgHkrXqZLJcSK31Eves-182">
          <mxGeometry relative="1" as="geometry" />
        </mxCell>
        <mxCell id="VIgHkrXqZLJcSK31Eves-103" value="退货" style="rounded=0;whiteSpace=wrap;html=1;" vertex="1" parent="VIgHkrXqZLJcSK31Eves-21">
          <mxGeometry x="960" y="3080" width="120" height="60" as="geometry" />
        </mxCell>
        <mxCell id="VIgHkrXqZLJcSK31Eves-236" style="edgeStyle=orthogonalEdgeStyle;rounded=0;orthogonalLoop=1;jettySize=auto;html=1;exitX=1;exitY=0.5;exitDx=0;exitDy=0;strokeColor=#66CC00;" edge="1" parent="VIgHkrXqZLJcSK31Eves-21" source="VIgHkrXqZLJcSK31Eves-102" target="VIgHkrXqZLJcSK31Eves-156">
          <mxGeometry relative="1" as="geometry" />
        </mxCell>
        <mxCell id="VIgHkrXqZLJcSK31Eves-238" style="edgeStyle=orthogonalEdgeStyle;rounded=0;orthogonalLoop=1;jettySize=auto;html=1;exitX=1;exitY=0.5;exitDx=0;exitDy=0;entryX=1;entryY=0;entryDx=0;entryDy=0;" edge="1" parent="VIgHkrXqZLJcSK31Eves-21" source="VIgHkrXqZLJcSK31Eves-97" target="VIgHkrXqZLJcSK31Eves-136">
          <mxGeometry relative="1" as="geometry">
            <Array as="points">
              <mxPoint x="1330" y="2910" />
              <mxPoint x="1330" y="2570" />
              <mxPoint x="330" y="2570" />
            </Array>
          </mxGeometry>
        </mxCell>
        <mxCell id="VIgHkrXqZLJcSK31Eves-97" value="分流" style="rounded=0;whiteSpace=wrap;html=1;" vertex="1" parent="VIgHkrXqZLJcSK31Eves-21">
          <mxGeometry x="1140" y="2880" width="120" height="60" as="geometry" />
        </mxCell>
        <mxCell id="VIgHkrXqZLJcSK31Eves-102" value="分流" style="rounded=0;whiteSpace=wrap;html=1;" vertex="1" parent="VIgHkrXqZLJcSK31Eves-21">
          <mxGeometry x="1140" y="2980" width="120" height="60" as="geometry" />
        </mxCell>
        <mxCell id="VIgHkrXqZLJcSK31Eves-235" style="edgeStyle=orthogonalEdgeStyle;rounded=0;orthogonalLoop=1;jettySize=auto;html=1;exitX=1;exitY=0.5;exitDx=0;exitDy=0;entryX=0;entryY=0.5;entryDx=0;entryDy=0;" edge="1" parent="VIgHkrXqZLJcSK31Eves-21" source="VIgHkrXqZLJcSK31Eves-182" target="VIgHkrXqZLJcSK31Eves-162">
          <mxGeometry relative="1" as="geometry">
            <mxPoint x="1320" y="3110" as="targetPoint" />
          </mxGeometry>
        </mxCell>
        <mxCell id="VIgHkrXqZLJcSK31Eves-182" value="分流" style="rounded=0;whiteSpace=wrap;html=1;" vertex="1" parent="VIgHkrXqZLJcSK31Eves-21">
          <mxGeometry x="1140" y="3080" width="120" height="60" as="geometry" />
        </mxCell>
        <mxCell id="VIgHkrXqZLJcSK31Eves-163" value="待退货列表" style="rounded=0;whiteSpace=wrap;html=1;" vertex="1" parent="VIgHkrXqZLJcSK31Eves-21">
          <mxGeometry x="1340" y="3600" width="120" height="60" as="geometry" />
        </mxCell>
        <mxCell id="VIgHkrXqZLJcSK31Eves-156" value="待出库列表" style="rounded=0;whiteSpace=wrap;html=1;" vertex="1" parent="VIgHkrXqZLJcSK31Eves-21">
          <mxGeometry x="1670" y="3600" width="120" height="60" as="geometry" />
        </mxCell>
        <mxCell id="VIgHkrXqZLJcSK31Eves-237" style="edgeStyle=orthogonalEdgeStyle;rounded=0;orthogonalLoop=1;jettySize=auto;html=1;exitX=0.5;exitY=1;exitDx=0;exitDy=0;" edge="1" parent="VIgHkrXqZLJcSK31Eves-21" source="VIgHkrXqZLJcSK31Eves-162" target="VIgHkrXqZLJcSK31Eves-163">
          <mxGeometry relative="1" as="geometry" />
        </mxCell>
        <mxCell id="VIgHkrXqZLJcSK31Eves-162" value="退货审核" style="rounded=0;whiteSpace=wrap;html=1;" vertex="1" parent="VIgHkrXqZLJcSK31Eves-21">
          <mxGeometry x="1340" y="3080" width="120" height="60" as="geometry" />
        </mxCell>
        <mxCell id="VIgHkrXqZLJcSK31Eves-246" style="edgeStyle=orthogonalEdgeStyle;rounded=0;orthogonalLoop=1;jettySize=auto;html=1;exitX=0.5;exitY=1;exitDx=0;exitDy=0;entryX=0.5;entryY=1;entryDx=0;entryDy=0;strokeColor=#00CC00;" edge="1" parent="VIgHkrXqZLJcSK31Eves-21" source="VIgHkrXqZLJcSK31Eves-243" target="VIgHkrXqZLJcSK31Eves-156">
          <mxGeometry relative="1" as="geometry">
            <Array as="points">
              <mxPoint x="130" y="3770" />
              <mxPoint x="1730" y="3770" />
            </Array>
          </mxGeometry>
        </mxCell>
        <mxCell id="VIgHkrXqZLJcSK31Eves-243" value="分流" style="rounded=0;whiteSpace=wrap;html=1;" vertex="1" parent="VIgHkrXqZLJcSK31Eves-21">
          <mxGeometry x="70" y="3487" width="120" height="60" as="geometry" />
        </mxCell>
        <mxCell id="VIgHkrXqZLJcSK31Eves-247" style="edgeStyle=orthogonalEdgeStyle;rounded=0;orthogonalLoop=1;jettySize=auto;html=1;exitX=0.5;exitY=1;exitDx=0;exitDy=0;entryX=0;entryY=0.5;entryDx=0;entryDy=0;strokeColor=#0000FF;" edge="1" parent="VIgHkrXqZLJcSK31Eves-21" source="VIgHkrXqZLJcSK31Eves-242" target="VIgHkrXqZLJcSK31Eves-136">
          <mxGeometry relative="1" as="geometry">
            <Array as="points">
              <mxPoint x="290" y="3567" />
              <mxPoint x="40" y="3567" />
              <mxPoint x="40" y="2620" />
            </Array>
          </mxGeometry>
        </mxCell>
        <mxCell id="VIgHkrXqZLJcSK31Eves-242" value="分流" style="rounded=0;whiteSpace=wrap;html=1;" vertex="1" parent="VIgHkrXqZLJcSK31Eves-21">
          <mxGeometry x="230" y="3487" width="120" height="60" as="geometry" />
        </mxCell>
        <mxCell id="VIgHkrXqZLJcSK31Eves-16" value="估价系统" style="swimlane;whiteSpace=wrap;html=1;" vertex="1" parent="1">
          <mxGeometry x="-120" y="-40" width="250" height="4160" as="geometry" />
        </mxCell>
        <mxCell id="VIgHkrXqZLJcSK31Eves-52" value="生成预估价格，生成估价单" style="rounded=0;whiteSpace=wrap;html=1;" vertex="1" parent="VIgHkrXqZLJcSK31Eves-16">
          <mxGeometry x="60" y="350" width="120" height="60" as="geometry" />
        </mxCell>
        <mxCell id="VIgHkrXqZLJcSK31Eves-81" value="更新估价单" style="rounded=0;whiteSpace=wrap;html=1;" vertex="1" parent="VIgHkrXqZLJcSK31Eves-16">
          <mxGeometry x="60" y="1040" width="120" height="60" as="geometry" />
        </mxCell>
        <mxCell id="VIgHkrXqZLJcSK31Eves-57" style="edgeStyle=orthogonalEdgeStyle;rounded=0;orthogonalLoop=1;jettySize=auto;html=1;exitX=1;exitY=0.5;exitDx=0;exitDy=0;entryX=0;entryY=0.5;entryDx=0;entryDy=0;dashed=1;" edge="1" parent="1" source="VIgHkrXqZLJcSK31Eves-40" target="VIgHkrXqZLJcSK31Eves-52">
          <mxGeometry relative="1" as="geometry" />
        </mxCell>
        <mxCell id="VIgHkrXqZLJcSK31Eves-61" style="edgeStyle=orthogonalEdgeStyle;rounded=0;orthogonalLoop=1;jettySize=auto;html=1;exitX=0.5;exitY=1;exitDx=0;exitDy=0;entryX=1;entryY=0.5;entryDx=0;entryDy=0;dashed=1;" edge="1" parent="1" source="VIgHkrXqZLJcSK31Eves-52" target="VIgHkrXqZLJcSK31Eves-51">
          <mxGeometry relative="1" as="geometry" />
        </mxCell>
        <mxCell id="VIgHkrXqZLJcSK31Eves-62" style="edgeStyle=orthogonalEdgeStyle;rounded=0;orthogonalLoop=1;jettySize=auto;html=1;exitX=1;exitY=0.5;exitDx=0;exitDy=0;entryX=0;entryY=0.5;entryDx=0;entryDy=0;dashed=1;" edge="1" parent="1" source="VIgHkrXqZLJcSK31Eves-50" target="VIgHkrXqZLJcSK31Eves-56">
          <mxGeometry relative="1" as="geometry" />
        </mxCell>
        <mxCell id="VIgHkrXqZLJcSK31Eves-83" style="edgeStyle=orthogonalEdgeStyle;rounded=0;orthogonalLoop=1;jettySize=auto;html=1;exitX=1;exitY=0.5;exitDx=0;exitDy=0;dashed=1;" edge="1" parent="1" source="VIgHkrXqZLJcSK31Eves-73" target="VIgHkrXqZLJcSK31Eves-80">
          <mxGeometry relative="1" as="geometry" />
        </mxCell>
        <mxCell id="VIgHkrXqZLJcSK31Eves-85" style="edgeStyle=orthogonalEdgeStyle;rounded=0;orthogonalLoop=1;jettySize=auto;html=1;exitX=0.5;exitY=1;exitDx=0;exitDy=0;entryX=1;entryY=0.5;entryDx=0;entryDy=0;dashed=1;" edge="1" parent="1" source="VIgHkrXqZLJcSK31Eves-80" target="VIgHkrXqZLJcSK31Eves-77">
          <mxGeometry relative="1" as="geometry" />
        </mxCell>
        <mxCell id="VIgHkrXqZLJcSK31Eves-88" value="返回匹配的营销活动" style="edgeLabel;html=1;align=center;verticalAlign=middle;resizable=0;points=[];" vertex="1" connectable="0" parent="VIgHkrXqZLJcSK31Eves-85">
          <mxGeometry x="0.1274" y="3" relative="1" as="geometry">
            <mxPoint as="offset" />
          </mxGeometry>
        </mxCell>
        <mxCell id="VIgHkrXqZLJcSK31Eves-125" style="edgeStyle=orthogonalEdgeStyle;rounded=0;orthogonalLoop=1;jettySize=auto;html=1;exitX=1;exitY=0.5;exitDx=0;exitDy=0;entryX=1;entryY=0;entryDx=0;entryDy=0;dashed=1;" edge="1" parent="1" source="VIgHkrXqZLJcSK31Eves-120" target="VIgHkrXqZLJcSK31Eves-79">
          <mxGeometry relative="1" as="geometry" />
        </mxCell>
        <mxCell id="VIgHkrXqZLJcSK31Eves-126" value="NO" style="edgeLabel;html=1;align=center;verticalAlign=middle;resizable=0;points=[];" vertex="1" connectable="0" parent="VIgHkrXqZLJcSK31Eves-125">
          <mxGeometry x="-0.7825" y="-4" relative="1" as="geometry">
            <mxPoint as="offset" />
          </mxGeometry>
        </mxCell>
        <mxCell id="VIgHkrXqZLJcSK31Eves-146" style="edgeStyle=orthogonalEdgeStyle;rounded=0;orthogonalLoop=1;jettySize=auto;html=1;exitX=1;exitY=0.5;exitDx=0;exitDy=0;entryX=0;entryY=0.5;entryDx=0;entryDy=0;" edge="1" parent="1" source="VIgHkrXqZLJcSK31Eves-141" target="VIgHkrXqZLJcSK31Eves-140">
          <mxGeometry relative="1" as="geometry" />
        </mxCell>
        <mxCell id="VIgHkrXqZLJcSK31Eves-248" style="edgeStyle=orthogonalEdgeStyle;rounded=0;orthogonalLoop=1;jettySize=auto;html=1;exitX=1;exitY=0.5;exitDx=0;exitDy=0;entryX=0;entryY=0.5;entryDx=0;entryDy=0;dashed=1;" edge="1" parent="1" source="VIgHkrXqZLJcSK31Eves-49" target="VIgHkrXqZLJcSK31Eves-38">
          <mxGeometry relative="1" as="geometry" />
        </mxCell>
        <mxCell id="VIgHkrXqZLJcSK31Eves-251" value="提交云检测" style="edgeLabel;html=1;align=center;verticalAlign=middle;resizable=0;points=[];" vertex="1" connectable="0" parent="VIgHkrXqZLJcSK31Eves-248">
          <mxGeometry x="-0.7709" y="-4" relative="1" as="geometry">
            <mxPoint as="offset" />
          </mxGeometry>
        </mxCell>
        <mxCell id="VIgHkrXqZLJcSK31Eves-249" style="edgeStyle=orthogonalEdgeStyle;rounded=0;orthogonalLoop=1;jettySize=auto;html=1;exitX=1;exitY=0.5;exitDx=0;exitDy=0;entryX=-0.044;entryY=0.503;entryDx=0;entryDy=0;entryPerimeter=0;dashed=1;" edge="1" parent="1" source="VIgHkrXqZLJcSK31Eves-38" target="VIgHkrXqZLJcSK31Eves-48">
          <mxGeometry relative="1" as="geometry" />
        </mxCell>
        <mxCell id="VIgHkrXqZLJcSK31Eves-257" style="edgeStyle=orthogonalEdgeStyle;rounded=0;orthogonalLoop=1;jettySize=auto;html=1;exitX=1;exitY=0.5;exitDx=0;exitDy=0;entryX=1;entryY=0;entryDx=0;entryDy=0;strokeColor=#CC0000;dashed=1;" edge="1" parent="1" source="VIgHkrXqZLJcSK31Eves-253" target="VIgHkrXqZLJcSK31Eves-49">
          <mxGeometry relative="1" as="geometry" />
        </mxCell>
        <mxCell id="VIgHkrXqZLJcSK31Eves-258" value="不通过&lt;br&gt;重新拍照" style="edgeLabel;html=1;align=center;verticalAlign=middle;resizable=0;points=[];" vertex="1" connectable="0" parent="VIgHkrXqZLJcSK31Eves-257">
          <mxGeometry x="-0.7468" relative="1" as="geometry">
            <mxPoint as="offset" />
          </mxGeometry>
        </mxCell>
        <mxCell id="VIgHkrXqZLJcSK31Eves-263" style="edgeStyle=orthogonalEdgeStyle;rounded=0;orthogonalLoop=1;jettySize=auto;html=1;exitX=0;exitY=0.5;exitDx=0;exitDy=0;entryX=1;entryY=0.5;entryDx=0;entryDy=0;dashed=1;" edge="1" parent="1" source="VIgHkrXqZLJcSK31Eves-65" target="VIgHkrXqZLJcSK31Eves-259">
          <mxGeometry relative="1" as="geometry" />
        </mxCell>
        <mxCell id="VIgHkrXqZLJcSK31Eves-264" value="YES" style="edgeLabel;html=1;align=center;verticalAlign=middle;resizable=0;points=[];" vertex="1" connectable="0" parent="VIgHkrXqZLJcSK31Eves-263">
          <mxGeometry x="0.1567" y="-1" relative="1" as="geometry">
            <mxPoint as="offset" />
          </mxGeometry>
        </mxCell>
        <mxCell id="VIgHkrXqZLJcSK31Eves-266" style="edgeStyle=orthogonalEdgeStyle;rounded=0;orthogonalLoop=1;jettySize=auto;html=1;exitX=0;exitY=0.5;exitDx=0;exitDy=0;entryX=1;entryY=0.5;entryDx=0;entryDy=0;dashed=1;" edge="1" parent="1" source="VIgHkrXqZLJcSK31Eves-73" target="VIgHkrXqZLJcSK31Eves-265">
          <mxGeometry relative="1" as="geometry" />
        </mxCell>
        <mxCell id="VIgHkrXqZLJcSK31Eves-267" style="edgeStyle=orthogonalEdgeStyle;rounded=0;orthogonalLoop=1;jettySize=auto;html=1;exitX=0;exitY=0.5;exitDx=0;exitDy=0;entryX=0.5;entryY=0;entryDx=0;entryDy=0;dashed=1;strokeColor=#6600CC;" edge="1" parent="1" source="VIgHkrXqZLJcSK31Eves-73" target="VIgHkrXqZLJcSK31Eves-81">
          <mxGeometry relative="1" as="geometry">
            <Array as="points">
              <mxPoint x="430" y="1030" />
              <mxPoint x="430" y="960" />
              <mxPoint y="960" />
            </Array>
          </mxGeometry>
        </mxCell>
        <mxCell id="VIgHkrXqZLJcSK31Eves-269" style="edgeStyle=orthogonalEdgeStyle;rounded=0;orthogonalLoop=1;jettySize=auto;html=1;exitX=0.5;exitY=1;exitDx=0;exitDy=0;entryX=0;entryY=0.5;entryDx=0;entryDy=0;dashed=1;" edge="1" parent="1" source="VIgHkrXqZLJcSK31Eves-100" target="VIgHkrXqZLJcSK31Eves-268">
          <mxGeometry relative="1" as="geometry" />
        </mxCell>
        <mxCell id="VIgHkrXqZLJcSK31Eves-270" style="edgeStyle=orthogonalEdgeStyle;rounded=0;orthogonalLoop=1;jettySize=auto;html=1;exitX=1;exitY=0.5;exitDx=0;exitDy=0;entryX=0;entryY=0.5;entryDx=0;entryDy=0;dashed=1;" edge="1" parent="1" source="VIgHkrXqZLJcSK31Eves-268" target="VIgHkrXqZLJcSK31Eves-143">
          <mxGeometry relative="1" as="geometry" />
        </mxCell>
        <mxCell id="VIgHkrXqZLJcSK31Eves-272" style="edgeStyle=orthogonalEdgeStyle;rounded=0;orthogonalLoop=1;jettySize=auto;html=1;exitX=0.5;exitY=1;exitDx=0;exitDy=0;entryX=1;entryY=0.5;entryDx=0;entryDy=0;dashed=1;" edge="1" parent="1" source="VIgHkrXqZLJcSK31Eves-119" target="VIgHkrXqZLJcSK31Eves-271">
          <mxGeometry relative="1" as="geometry" />
        </mxCell>
        <mxCell id="VIgHkrXqZLJcSK31Eves-273" value="NO" style="edgeLabel;html=1;align=center;verticalAlign=middle;resizable=0;points=[];" vertex="1" connectable="0" parent="VIgHkrXqZLJcSK31Eves-272">
          <mxGeometry x="0.0783" y="-2" relative="1" as="geometry">
            <mxPoint as="offset" />
          </mxGeometry>
        </mxCell>
        <mxCell id="VIgHkrXqZLJcSK31Eves-275" style="edgeStyle=orthogonalEdgeStyle;rounded=0;orthogonalLoop=1;jettySize=auto;html=1;exitX=0;exitY=0.5;exitDx=0;exitDy=0;entryX=1;entryY=0.5;entryDx=0;entryDy=0;dashed=1;" edge="1" parent="1" source="VIgHkrXqZLJcSK31Eves-119" target="VIgHkrXqZLJcSK31Eves-274">
          <mxGeometry relative="1" as="geometry">
            <Array as="points">
              <mxPoint x="370" y="1740" />
              <mxPoint x="370" y="1680" />
            </Array>
          </mxGeometry>
        </mxCell>
        <mxCell id="VIgHkrXqZLJcSK31Eves-276" value="YES" style="edgeLabel;html=1;align=center;verticalAlign=middle;resizable=0;points=[];" vertex="1" connectable="0" parent="VIgHkrXqZLJcSK31Eves-275">
          <mxGeometry x="0.3" relative="1" as="geometry">
            <mxPoint as="offset" />
          </mxGeometry>
        </mxCell>
        <mxCell id="VIgHkrXqZLJcSK31Eves-277" style="edgeStyle=orthogonalEdgeStyle;rounded=0;orthogonalLoop=1;jettySize=auto;html=1;exitX=0;exitY=0.5;exitDx=0;exitDy=0;entryX=1;entryY=0.5;entryDx=0;entryDy=0;dashed=1;" edge="1" parent="1" source="VIgHkrXqZLJcSK31Eves-274" target="VIgHkrXqZLJcSK31Eves-100">
          <mxGeometry relative="1" as="geometry" />
        </mxCell>
        <mxCell id="VIgHkrXqZLJcSK31Eves-279" style="edgeStyle=orthogonalEdgeStyle;rounded=0;orthogonalLoop=1;jettySize=auto;html=1;exitX=0.5;exitY=1;exitDx=0;exitDy=0;entryX=1;entryY=0.5;entryDx=0;entryDy=0;dashed=1;strokeColor=#009900;" edge="1" parent="1" source="VIgHkrXqZLJcSK31Eves-140" target="VIgHkrXqZLJcSK31Eves-278">
          <mxGeometry relative="1" as="geometry" />
        </mxCell>
        <mxCell id="VIgHkrXqZLJcSK31Eves-282" style="edgeStyle=orthogonalEdgeStyle;rounded=0;orthogonalLoop=1;jettySize=auto;html=1;exitX=0;exitY=0.5;exitDx=0;exitDy=0;dashed=1;" edge="1" parent="1" source="VIgHkrXqZLJcSK31Eves-164" target="VIgHkrXqZLJcSK31Eves-280">
          <mxGeometry relative="1" as="geometry" />
        </mxCell>
        <mxCell id="VIgHkrXqZLJcSK31Eves-284" style="edgeStyle=orthogonalEdgeStyle;rounded=0;orthogonalLoop=1;jettySize=auto;html=1;exitX=0.5;exitY=1;exitDx=0;exitDy=0;dashed=1;strokeColor=#7F00FF;" edge="1" parent="1" source="VIgHkrXqZLJcSK31Eves-143" target="VIgHkrXqZLJcSK31Eves-283">
          <mxGeometry relative="1" as="geometry">
            <Array as="points">
              <mxPoint x="1025" y="1940" />
              <mxPoint x="280" y="1940" />
            </Array>
          </mxGeometry>
        </mxCell>
        <mxCell id="VIgHkrXqZLJcSK31Eves-285" style="edgeStyle=orthogonalEdgeStyle;rounded=0;orthogonalLoop=1;jettySize=auto;html=1;exitX=0.5;exitY=1;exitDx=0;exitDy=0;dashed=1;strokeColor=#FF0000;" edge="1" parent="1" source="VIgHkrXqZLJcSK31Eves-243" target="VIgHkrXqZLJcSK31Eves-281">
          <mxGeometry relative="1" as="geometry">
            <Array as="points">
              <mxPoint x="1280" y="3730" />
              <mxPoint x="300" y="3730" />
            </Array>
          </mxGeometry>
        </mxCell>
        <mxCell id="VIgHkrXqZLJcSK31Eves-286" style="edgeStyle=orthogonalEdgeStyle;rounded=0;orthogonalLoop=1;jettySize=auto;html=1;exitX=1;exitY=0.5;exitDx=0;exitDy=0;entryX=1;entryY=0.5;entryDx=0;entryDy=0;dashed=1;strokeColor=#006600;" edge="1" parent="1" source="VIgHkrXqZLJcSK31Eves-102" target="VIgHkrXqZLJcSK31Eves-281">
          <mxGeometry relative="1" as="geometry">
            <Array as="points">
              <mxPoint x="2450" y="2970" />
              <mxPoint x="2450" y="3860" />
            </Array>
          </mxGeometry>
        </mxCell>
      </root>
    </mxGraphModel>
  </diagram>
</mxfile>
